<?xml version="1.0" encoding="utf-8"?>
<!-- Generator: Adobe Illustrator 24.0.2, SVG Export Plug-In . SVG Version: 6.00 Build 0)  -->
<svg version="1.1" id="Capa_1" xmlns="http://www.w3.org/2000/svg" xmlns:xlink="http://www.w3.org/1999/xlink" x="0px" y="0px"
	 viewBox="0 0 45 45" style="enable-background:new 0 0 45 45;" xml:space="preserve">
<style type="text/css">
	.st0{fill:#FFFFFF;}
</style>
<path class="st0" d="M0,0h45v45H0V0z"/>
<path d="M16.4,17.6h4.9v4.9h-4.9V17.6z M23.7,17.6h4.9v4.9h-4.9V17.6z M31,17.6h4.9v4.9H31V17.6z M9.1,32.2H14v4.9H9.1V32.2z
	 M16.4,32.2h4.9v4.9h-4.9V32.2z M23.7,32.2h4.9v4.9h-4.9V32.2z M16.4,24.9h4.9v4.9h-4.9V24.9z M23.7,24.9h4.9v4.9h-4.9V24.9z
	 M31,24.9h4.9v4.9H31V24.9z M9.1,24.9H14v4.9H9.1V24.9z M35.9,3v2.4H31V3H14v2.4H9.1V3H4.2v39h36.5V3H35.9z M38.3,39.6H6.7V12.8
	h31.7V39.6z"/>
</svg>
