<svg xmlns="http://www.w3.org/2000/svg" xmlns:xlink="http://www.w3.org/1999/xlink" width="0" height="0" style="position:absolute">
	
		<symbol id="icon-chevron-down" viewBox="0 0 24 24">
			<path d="M5.293 9.707l6 6a.999.999 0 0 0 1.414 0l6-6a.999.999 0 1 0-1.414-1.414L12 13.586 6.707 8.293a.999.999 0 1 0-1.414 1.414z"></path>
		</symbol>
	
		<symbol id="icon-chevron-left" viewBox="0 0 24 24">
			<path d="M15.707 17.293L10.414 12l5.293-5.293a.999.999 0 1 0-1.414-1.414l-6 6a.999.999 0 0 0 0 1.414l6 6a.999.999 0 1 0 1.414-1.414z"></path>
		</symbol>
	
		<symbol id="icon-chevron-right" viewBox="0 0 24 24">
			<path d="M9.707 18.707l6-6a.999.999 0 0 0 0-1.414l-6-6a.999.999 0 1 0-1.414 1.414L13.586 12l-5.293 5.293a.999.999 0 1 0 1.414 1.414z"></path>
		</symbol>
	
		<symbol id="icon-chevron-up" viewBox="0 0 24 24">
			<path d="M18.707 14.293l-6-6a.999.999 0 0 0-1.414 0l-6 6a.999.999 0 1 0 1.414 1.414L12 10.414l5.293 5.293a.999.999 0 1 0 1.414-1.414z"></path>
		</symbol>
	
		<symbol id="icon-cross" viewBox="0 0 320 512">
			<path d="M193.94 256L296.5 153.44l21.15-21.15c3.12-3.12 3.12-8.19 0-11.31l-22.63-22.63c-3.12-3.12-8.19-3.12-11.31 0L160 222.06 36.29 98.34c-3.12-3.12-8.19-3.12-11.31 0L2.34 120.97c-3.12 3.12-3.12 8.19 0 11.31L126.06 256 2.34 379.71c-3.12 3.12-3.12 8.19 0 11.31l22.63 22.63c3.12 3.12 8.19 3.12 11.31 0L160 289.94 262.56 392.5l21.15 21.15c3.12 3.12 8.19 3.12 11.31 0l22.63-22.63c3.12-3.12 3.12-8.19 0-11.31L193.94 256z"></path>
		</symbol>
	
		<symbol id="icon-menu-vertical-dots-line" viewBox="0 0 192 512">
			<path d="M96 152c39.8 0 72-32.2 72-72S135.8 8 96 8 24 40.2 24 80s32.2 72 72 72zm0-112c22.1 0 40 17.9 40 40s-17.9 40-40 40-40-17.9-40-40 17.9-40 40-40zm0 144c-39.8 0-72 32.2-72 72s32.2 72 72 72 72-32.2 72-72-32.2-72-72-72zm0 112c-22.1 0-40-17.9-40-40s17.9-40 40-40 40 17.9 40 40-17.9 40-40 40zm0 64c-39.8 0-72 32.2-72 72s32.2 72 72 72 72-32.2 72-72-32.2-72-72-72zm0 112c-22.1 0-40-17.9-40-40s17.9-40 40-40 40 17.9 40 40-17.9 40-40 40z"></path>
		</symbol>
	
</svg>
