<svg xmlns="http://www.w3.org/2000/svg" xmlns:xlink="http://www.w3.org/1999/xlink" width="0" height="0" style="position:absolute">
	
		<symbol id="icon-chevron-down" viewBox="0 0 24 24">
			<path d="M5.293 9.707l6 6a.999.999 0 0 0 1.414 0l6-6a.999.999 0 1 0-1.414-1.414L12 13.586 6.707 8.293a.999.999 0 1 0-1.414 1.414z"></path>
		</symbol>
	
		<symbol id="icon-chevron-left" viewBox="0 0 24 24">
			<path d="M15.707 17.293L10.414 12l5.293-5.293a.999.999 0 1 0-1.414-1.414l-6 6a.999.999 0 0 0 0 1.414l6 6a.999.999 0 1 0 1.414-1.414z"></path>
		</symbol>
	
		<symbol id="icon-chevron-right" viewBox="0 0 24 24">
			<path d="M9.707 18.707l6-6a.999.999 0 0 0 0-1.414l-6-6a.999.999 0 1 0-1.414 1.414L13.586 12l-5.293 5.293a.999.999 0 1 0 1.414 1.414z"></path>
		</symbol>
	
		<symbol id="icon-chevron-up" viewBox="0 0 24 24">
			<path d="M18.707 14.293l-6-6a.999.999 0 0 0-1.414 0l-6 6a.999.999 0 1 0 1.414 1.414L12 10.414l5.293 5.293a.999.999 0 1 0 1.414-1.414z"></path>
		</symbol>
	
		<symbol id="icon-cross" viewBox="0 0 320 512">
			<path d="M193.94 256L296.5 153.44l21.15-21.15c3.12-3.12 3.12-8.19 0-11.31l-22.63-22.63c-3.12-3.12-8.19-3.12-11.31 0L160 222.06 36.29 98.34c-3.12-3.12-8.19-3.12-11.31 0L2.34 120.97c-3.12 3.12-3.12 8.19 0 11.31L126.06 256 2.34 379.71c-3.12 3.12-3.12 8.19 0 11.31l22.63 22.63c3.12 3.12 8.19 3.12 11.31 0L160 289.94 262.56 392.5l21.15 21.15c3.12 3.12 8.19 3.12 11.31 0l22.63-22.63c3.12-3.12 3.12-8.19 0-11.31L193.94 256z"></path>
		</symbol>
	
		<symbol id="icon-download-pdf" viewBox="0 0 32 46">
			<path d="M2 11.9h.9V1.6c0-.1 18.3 0 18.3 0v7.1c0 .8.7 1.5 1.6 1.5h6.3v1.7c.7 0 1 0 1.6.1v-1.8L21.2 0H3C2 0 1.3.7 1.3 1.6v10.3H2zM31.6 37.4c.2.4.1.8-.2 1.1L24 45.7c-.4.4-1.1.4-1.5 0l-7.3-7.2c-.3-.3-.4-.7-.2-1.1.2-.4.5-.6 1-.6h4.2v-7.2c0-.3.1-.5.3-.7.2-.2.5-.3.7-.3h4.2c.3 0 .5.1.7.3s.3.4.3.7v7.2h4.2c.5 0 .8.2 1 .6z"></path><path d="M30.6 35.7s.1 0 0 0l.1-7.5c-.5.1-1.1.1-1.6.1v7.4h1.5zM14.4 39.3c-.4-.4-.6-.9-.7-1.4H3v-9.6c-.6 0-1.1 0-1.6-.1v9.7c0 .9.7 1.6 1.7 1.6h11.7l-.4-.2zM15.9 17.3c-.5 0-.8 0-1 .1v6.1c2.2.3 4-.6 4-3.2 0-2-1.2-3-3-3zM6.7 17.3V20c1.2.2 2.6-.2 2.6-1.5s-1.5-1.4-2.6-1.2z"></path><path d="M30 12.9H2c-1.1 0-2 .9-2 2v10.3c0 1.1.9 2 2 2h28c1.1 0 2-.9 2-2V14.9c0-1.1-.9-2-2-2zm-19.5 7.8c-.8.8-2.5 1.1-3.8.9V25H4.6v-9.2c.7-.1 1.6-.2 2.9-.2 1.3 0 2.3.3 2.9.7 1.3 1 1.3 3.4.1 4.4zm9.1 3.2c-1.5 1.3-4.8 1.3-6.8 1.1v-9.1c2-.3 5.3-.4 6.8.8 2.2 1.4 2 5.7 0 7.2zm8.8-6.5h-3.7v2.1h3.4v1.7h-3.4V25h-2.2v-9.3h5.8l.1 1.7z"></path>
		</symbol>
	
		<symbol id="icon-menu-vertical-dots-line" viewBox="0 0 192 512">
			<path d="M96 152c39.8 0 72-32.2 72-72S135.8 8 96 8 24 40.2 24 80s32.2 72 72 72zm0-112c22.1 0 40 17.9 40 40s-17.9 40-40 40-40-17.9-40-40 17.9-40 40-40zm0 144c-39.8 0-72 32.2-72 72s32.2 72 72 72 72-32.2 72-72-32.2-72-72-72zm0 112c-22.1 0-40-17.9-40-40s17.9-40 40-40 40 17.9 40 40-17.9 40-40 40zm0 64c-39.8 0-72 32.2-72 72s32.2 72 72 72 72-32.2 72-72-32.2-72-72-72zm0 112c-22.1 0-40-17.9-40-40s17.9-40 40-40 40 17.9 40 40-17.9 40-40 40z"></path>
		</symbol>
	
</svg>
