<svg xmlns="http://www.w3.org/2000/svg"
	xmlns:xlink="http://www.w3.org/1999/xlink" viewBox="0 0 36.5 39">
	<path d="M12.2,14.6h4.9v4.9h-4.9V14.6z M19.5,14.6h4.9v4.9h-4.9V14.6z M26.8,14.6h4.9v4.9h-4.9V14.6z M4.9,29.2h4.9v4.9H4.9V29.2z
	 M12.2,29.2h4.9v4.9h-4.9V29.2z M19.5,29.2h4.9v4.9h-4.9V29.2z M12.2,21.9h4.9v4.9h-4.9V21.9z M19.5,21.9h4.9v4.9h-4.9V21.9z
	 M26.8,21.9h4.9v4.9h-4.9V21.9z M4.9,21.9h4.9v4.9H4.9V21.9z M31.7,0v2.4h-4.9V0h-17v2.4H4.9V0H0v39h36.5V0H31.7z M34.1,36.6H2.5
	V9.8h31.7v26.8H34.1z"/>
</svg>
