<svg xmlns="http://www.w3.org/2000/svg"
	xmlns:xlink="http://www.w3.org/1999/xlink" viewBox="0 0 32 46">
	<path d="M2,11.9c0.2,0,0.5,0,0.9,0V1.6c0-0.1,18.3,0,18.3,0v7.1c0,0.8,0.7,1.5,1.6,1.5h6.3v1.7c0.7,0,1,0,1.6,0.1v-1.8L21.2,0H3 C2,0,1.3,0.7,1.3,1.6v10.3C1.5,11.9,1.7,11.9,2,11.9z"/>
	<path d="M31.6,37.4c0.2,0.4,0.1,0.8-0.2,1.1L24,45.7c-0.4,0.4-1.1,0.4-1.5,0l-7.3-7.2c-0.3-0.3-0.4-0.7-0.2-1.1 c0.2-0.4,0.5-0.6,1-0.6h4.2v-7.2c0-0.3,0.1-0.5,0.3-0.7c0.2-0.2,0.5-0.3,0.7-0.3h4.2c0.3,0,0.5,0.1,0.7,0.3s0.3,0.4,0.3,0.7v7.2h4.2 C31.1,36.8,31.4,37,31.6,37.4z"/>
	<path d="M30.6,35.7C30.6,35.7,30.7,35.7,30.6,35.7l0.1-7.5c-0.5,0.1-1.1,0.1-1.6,0.1v7.4H30.6z"/>
	<path d="M14.4,39.3c-0.4-0.4-0.6-0.9-0.7-1.4H3c0,0,0,0,0,0v-9.6c-0.6,0-1.1,0-1.6-0.1v9.7c0,0.9,0.7,1.6,1.7,1.6h11.7L14.4,39.3z" />
	<path d="M15.9,17.3c-0.5,0-0.8,0-1,0.1v6.1c2.2,0.3,4-0.6,4-3.2C18.9,18.3,17.7,17.3,15.9,17.3z"/>
	<path d="M6.7,17.3v2.7c1.2,0.2,2.6-0.2,2.6-1.5C9.3,17.2,7.8,17.1,6.7,17.3z"/>
	<path d="M30,12.9c-3.1,0-24.9,0-28,0c-1.1,0-2,0.9-2,2v10.3c0,1.1,0.9,2,2,2c0.5,0,1.7,0,2.3,0h23.4c0.5,0,1.8,0,2.3,0 c1.1,0,2-0.9,2-2V14.9C32,13.8,31.1,12.9,30,12.9z M10.5,20.7c-0.8,0.8-2.5,1.1-3.8,0.9V25H4.6v-9.2c0.7-0.1,1.6-0.2,2.9-0.2 c1.3,0,2.3,0.3,2.9,0.7C11.7,17.3,11.7,19.7,10.5,20.7z M19.6,23.9c-1.5,1.3-4.8,1.3-6.8,1.1v-9.1c2-0.3,5.3-0.4,6.8,0.8 C21.8,18.1,21.6,22.4,19.6,23.9z M28.4,17.4h-3.7v2.1h3.4v1.7h-3.4V25h-2.2v-9.3h5.8L28.4,17.4L28.4,17.4z"/>
</svg>
